<svg id="Layer_1" enable-background="new 0 0 512 512" height="512" viewBox="0 0 512 512" width="512" xmlns="http://www.w3.org/2000/svg"><g><g><path d="m363.5 159.625h40v51.375h-40z" fill="#ffa95f"/><path d="m108.5 159.5h30v51h-30z" fill="#ffc269"/><g fill="#bc845e"><path d="m148.5 259.5h-26.5c-16.845 0-30.5-13.655-30.5-30.5 0-16.845 13.655-30.5 30.5-30.5h26.5z"/><path d="m363.5 259.5h26.5c16.845 0 30.5-13.655 30.5-30.5 0-16.845-13.655-30.5-30.5-30.5h-26.5z"/><path d="m212.5 342.5h87v70h-87z"/></g><path d="m373.5 139.5v100.5c0 64.893-52.606 117.5-117.5 117.5-64.893 0-117.5-52.607-117.5-117.5v-100.5z" fill="#d19a6e"/><path d="m373.5 139.5v100.5c0 64.89-52.61 117.5-117.5 117.5-5.08 0-10.09-.32-15-.95 57.81-7.37 102.5-56.74 102.5-116.55v-100.5z" fill="#bc845e"/><path d="m97.5 504.5c-11.046 0-20-8.954-20-20v-12c0-44.183 35.817-80 80-80h197c44.183 0 80 35.817 80 80v12c0 11.046-8.954 20-20 20z" fill="#bc845e"/><path d="m434.5 472.5v12c0 11.05-8.95 20-20 20h-30c11.05 0 20-8.95 20-20v-12c0-44.18-35.82-80-80-80h30c44.18 0 80 35.82 80 80z" fill="#ad775c"/><path d="m241.5 452.5v52h-109v-108.01c7.87-2.59 16.27-3.99 25-3.99h55v35c0 11.05 8.95 20 20 20h4c2.76 0 5 2.24 5 5z" fill="#ccf49f"/><path d="m379.5 396.49v108.01h-109v-52c0-2.76 2.24-5 5-5h4c11.05 0 20-8.95 20-20v-35h55c8.73 0 17.13 1.4 25 3.99z" fill="#ccf49f"/><path d="m379.5 396.49v17.91c-14.34-13.57-33.7-21.9-55-21.9h30c8.73 0 17.13 1.4 25 3.99z" fill="#b3e59f"/><path d="m105.353 76.804 5.988-20.826c2.462-8.572 10.304-14.478 19.223-14.478h250.873c8.919 0 16.76 5.906 19.223 14.478l6.133 21.23-150.793 56.459z" fill="#5d5360"/><path d="m273 269.5h-34c-13.807 0-25 11.193-25 25v11c0 2.761 2.239 5 5 5h12c13.807 0 25-11.193 25-25 0 13.807 11.193 25 25 25h12c2.761 0 5-2.239 5-5v-11c0-13.807-11.193-25-25-25z" fill="#ffc269"/><path d="m215.945 209.554c10.739 10.739 10.739 28.151 0 38.891-10.739 10.739-28.151 10.739-38.891 0-10.739-10.739-10.739-28.151 0-38.891 10.74-10.74 28.152-10.74 38.891 0z" fill="#6f6571"/><path d="m406.79 77.21-27.494 10.373-2.506-10.373-6.13-21.23c-2.46-8.57-10.3-14.48-19.22-14.48h30c8.92 0 16.76 5.91 19.22 14.48z" fill="#514a54"/><path d="m173.571 46.436 13.007-29.917c2.381-5.477 7.784-9.019 13.756-9.019h111.331c5.972 0 11.375 3.542 13.756 9.019l13.007 29.917c7.937 18.255 25.947 30.064 45.853 30.064h42.036c10.054 0 17.262 9.697 14.363 19.324l-20.039 66.559c-1.272 4.225-5.163 7.117-9.575 7.117h-310.133c-4.412 0-8.303-2.892-9.575-7.117l-20.04-66.559c-2.898-9.627 4.309-19.324 14.363-19.324h42.036c19.907 0 37.917-11.808 45.854-30.064z" fill="#6f6571"/><path d="m440.68 95.82-20.04 66.56c-1.27 4.23-5.16 7.12-9.57 7.12h-30c4.41 0 8.3-2.89 9.57-7.12l20.04-66.56c2.9-9.62-4.31-19.32-14.36-19.32h30c10.05 0 17.26 9.7 14.36 19.32z" fill="#5d5360"/></g><g><path d="m315.5 221.5c-4.142 0-7.5 3.358-7.5 7.5v15c0 4.142 3.358 7.5 7.5 7.5s7.5-3.358 7.5-7.5v-15c0-4.142-3.358-7.5-7.5-7.5z"/><path d="m293 472c0 5.514 4.486 10 10 10s10-4.486 10-10-4.486-10-10-10-10 4.486-10 10z"/><path d="m209 482c5.514 0 10-4.486 10-10s-4.486-10-10-10-10 4.486-10 10 4.486 10 10 10z"/><path d="m411.067 177c7.78 0 14.514-5.005 16.757-12.455l20.04-66.559c2.072-6.883.801-14.139-3.487-19.908-4.288-5.77-10.87-9.078-18.058-9.078h-14.116l-4.336-15.093c-3.367-11.721-14.236-19.907-26.431-19.907h-40.236l-8.9-20.472c-3.574-8.218-11.674-13.528-20.634-13.528h-66.166c-4.142 0-7.5 3.358-7.5 7.5s3.358 7.5 7.5 7.5h66.166c2.987 0 5.687 1.77 6.878 4.509l13.007 29.918c9.132 21.002 29.83 34.573 52.731 34.573h42.037c5.632.814 8.026 4.034 7.182 9.662l-20.04 66.559c-.32 1.064-1.282 1.779-2.394 1.779h-310.134c-1.111 0-2.073-.715-2.394-1.779l-20.039-66.559c-.844-5.628 1.549-8.848 7.182-9.662h42.037c22.901 0 43.6-13.571 52.731-34.573l13.007-29.917c1.191-2.74 3.891-4.51 6.878-4.51h10.165c4.142 0 7.5-3.358 7.5-7.5s-3.358-7.5-7.5-7.5h-10.166c-8.961 0-17.061 5.31-20.634 13.529l-8.9 20.471h-40.236c-12.195 0-23.064 8.186-26.431 19.907l-4.336 15.093h-14.116c-7.188 0-13.771 3.309-18.058 9.078-4.288 5.769-5.559 13.025-3.487 19.908l20.04 66.559c2.243 7.45 8.977 12.455 16.757 12.455h.067v20.35c-10.237 6.815-17 18.456-17 31.65 0 20.953 17.047 38 38 38h11.946c8.61 38.95 35.435 71.132 71.054 87.114v30.886h-47.5c-48.248 0-87.5 39.252-87.5 87.5v12c0 15.164 12.336 27.5 27.5 27.5h247c4.142 0 7.5-3.358 7.5-7.5s-3.358-7.5-7.5-7.5h-66.5v-42h1.5c15.164 0 27.5-12.336 27.5-27.5v-27.5h47.5c6.033 0 11.892.753 17.5 2.148v101.852c0 .084.01.166.013.25-.003.084-.013.166-.013.25 0 4.142 3.358 7.5 7.5 7.5h35c15.164 0 27.5-12.336 27.5-27.5v-12c0-48.248-39.252-87.5-87.5-87.5h-47.5v-30.886c35.619-15.982 62.445-48.164 71.054-87.114h11.946c20.953 0 38-17.047 38-38 0-13.194-6.762-24.835-17-31.65v-20.35zm-62.843-128h33.212c5.543 0 10.484 3.721 12.014 9.049l3.146 10.951h-12.314c-14.812 0-28.376-7.68-36.058-20zm-229.674 9.049c1.53-5.328 6.471-9.049 12.014-9.049h33.212c-7.681 12.32-21.246 20-36.058 20h-12.314zm308.45 414.451v12c0 6.893-5.607 12.5-12.5 12.5h-27.5v-89.278c23.697 11.939 40 36.483 40 64.778zm-244.642-229.359c-3.778-3.778-5.858-8.8-5.858-14.142s2.08-10.364 5.858-14.142c3.899-3.899 9.021-5.848 14.142-5.848s10.243 1.949 14.142 5.848c3.778 3.778 5.858 8.8 5.858 14.142s-2.08 10.364-5.858 14.142-8.8 5.858-14.142 5.858-10.364-2.08-14.142-5.858zm33.702-43.162c-13.605-9.178-32.28-7.758-44.309 4.271-6.611 6.61-10.251 15.399-10.251 24.749 0 6.476 1.75 12.682 5.021 18.083l-17.862 16.984c-1.736-7.749-2.659-15.801-2.659-24.066v-63h94.228zm-100.06-22.979h15v14h-9c-2.042 0-4.045.167-6 .478zm6 75c-12.682 0-23-10.318-23-23s10.318-23 23-23h9v15.5h-9.5c-4.142 0-7.5 3.358-7.5 7.5s3.358 7.5 7.5 7.5h9.5v3.5c0 4.048.201 8.049.579 12zm83 148v27.5c0 15.164 12.336 27.5 27.5 27.5h1.5v42h-94v-94.852c5.608-1.395 11.467-2.148 17.5-2.148zm-120 84.5v-12c0-28.295 16.303-52.839 40-64.778v89.278h-27.5c-6.893 0-12.5-5.607-12.5-12.5zm207-92v35c0 6.893-5.607 12.5-12.5 12.5h-4c-6.893 0-12.5 5.607-12.5 12.5v44.5h-14v-44.5c0-6.893-5.607-12.5-12.5-12.5h-4c-6.893 0-12.5-5.607-12.5-12.5v-35-32.792c11.406 3.436 23.489 5.292 36 5.292s24.594-1.856 36-5.292zm-36-42.5c-46.513 0-86.373-29.019-102.433-69.903l23.278-22.133c5.753 3.921 12.54 6.035 19.655 6.035 9.349 0 18.138-3.641 24.749-10.251s10.251-15.399 10.251-24.749c0-6.513-1.771-12.752-5.078-18.174l35.574-33.825h104.004v63c0 60.654-49.346 110-110 110zm134-98h-9.579c.378-3.951.579-7.952.579-12v-3.5h9.5c4.142 0 7.5-3.358 7.5-7.5s-3.358-7.5-7.5-7.5h-9.5v-15.5h9c12.682 0 23 10.318 23 23s-10.318 23-23 23zm6-60.522c-1.955-.312-3.958-.478-6-.478h-9v-14h15z"/><path d="m217.463 61.069 9.058 9.058c-3.589 5.582-5.521 12.077-5.521 18.872s1.932 13.29 5.521 18.872l-9.058 9.058c-2.929 2.929-2.929 7.678 0 10.606 3.535 2.929 7.071 2.929 10.606 0l9.058-9.058c5.582 3.589 12.077 5.521 18.872 5.521s13.29-1.932 18.872-5.521l9.058 9.058c3.535 2.929 7.071 2.929 10.606 0 2.929-2.929 2.929-7.678 0-10.606l-9.063-9.063c7.336-11.456 7.336-26.279 0-37.735l9.063-9.063c2.929-2.929 2.929-7.678 0-10.606-2.929-2.929-7.678-2.929-10.606 0l-9.063 9.063c-11.456-7.336-26.279-7.336-37.735 0l-9.063-9.063c-2.929-2.929-7.678-2.929-10.606 0s-2.928 7.678.001 10.607zm52.675 13.783c.002.002.003.003.005.005s.003.003.005.005c7.791 7.797 7.791 20.478 0 28.274-.002.002-.004.003-.005.005-.002.002-.003.003-.004.005-3.777 3.775-8.797 5.853-14.137 5.853-5.341 0-10.362-2.079-14.14-5.855-.001-.001-.001-.002-.002-.002-.001-.001-.002-.002-.003-.002-3.777-3.778-5.857-8.8-5.857-14.141 0-5.342 2.08-10.364 5.858-14.142 3.899-3.899 9.021-5.848 14.142-5.848 5.12 0 10.239 1.948 14.138 5.843z"/><path d="m273 262h-34c-17.92 0-32.5 14.58-32.5 32.5v11c0 6.893 5.607 12.5 12.5 12.5h12c10.042 0 19.034-4.58 25-11.759 5.966 7.179 14.958 11.759 25 11.759h12c6.893 0 12.5-5.607 12.5-12.5v-11c0-17.92-14.58-32.5-32.5-32.5zm-42 41h-9.5v-8.5c0-9.649 7.851-17.5 17.5-17.5h9.5v8.5c0 9.649-7.851 17.5-17.5 17.5zm59.5 0h-9.5c-9.649 0-17.5-7.851-17.5-17.5v-8.5h9.5c9.649 0 17.5 7.851 17.5 17.5z"/></g></g></svg>